<svg xmlns="http://www.w3.org/2000/svg" width="228.7" height="200.1" viewBox="0 0 228.7 200.1"><style type="text/css">.st0{fill:#231F20;} .st1{fill:none;stroke:#231F20;stroke-width:13.6322;stroke-miterlimit:10;} .st2{fill:#FFFFFF;} .st3{fill:none;stroke:#FFFFFF;stroke-width:13.6322;stroke-miterlimit:10;}</style><path class="st2" d="M91.1 60.4h25.7v9h-6.8l-25.7 70.2h-14.4l-25.3-70.1h-7v-9h25.7v9h-6.9l20.3 61.1 21.8-61.1h-7.5v-9.1zm85.8 20.9c-2.3-4-5.4-7.1-9.3-9.4-3.9-2.3-8.2-3.4-12.9-3.4-4 0-7.7.9-11.1 2.6-3.3 1.7-6.2 4-8.6 6.9-2.4 2.9-4.2 6.2-5.6 10-1.3 3.8-2 7.8-2 12 0 5 .7 9.3 2.2 13.2 1.5 3.8 3.4 7 5.7 9.5 2.4 2.5 5.2 4.6 8.4 6.3 3.2 1.7 6.9 2.5 10.9 2.5 5.5 0 10.3-1.3 14.4-4s7.6-7.1 10.5-13.2l9.2 4.3c-1.3 3.8-3.6 7.4-6.7 10.9-3.2 3.5-7.1 6.3-11.7 8.5-4.7 2.1-9.8 3.2-15.5 3.2-5.4 0-10.4-1-14.9-3.1-4.5-2-8.6-4.9-12.1-8.7-3.5-3.8-6.2-8.2-8.1-13.4-1.9-5.2-2.8-10.5-2.8-16.2 0-5.6.9-11 2.8-16s4.5-9.4 7.8-13.1c3.4-3.7 7.4-6.6 12-8.8 4.7-2.1 9.7-3.2 15.1-3.2 4.8 0 9 .7 12.6 2.1 3.5 1.4 6.5 3 9 4.9 2.5 1.9 4.6 4 6.4 6.2h5.5v9.3h-11.2zm-143.1-35.2h158.6v14.3h-158.6zm2.5 93.5h158.6v14.3h-158.6z"/><circle class="st3" cx="114.3" cy="100" r="92.5"/></svg>