<?xml version="1.0" encoding="utf-8"?>
<!-- Generator: Adobe Illustrator 19.1.0, SVG Export Plug-In . SVG Version: 6.00 Build 0)  -->
<!DOCTYPE svg PUBLIC "-//W3C//DTD SVG 1.1//EN" "http://www.w3.org/Graphics/SVG/1.1/DTD/svg11.dtd">
<svg version="1.1" id="Layer_1" xmlns="http://www.w3.org/2000/svg" xmlns:xlink="http://www.w3.org/1999/xlink" x="0px" y="0px"
	 width="228.7px" height="200.1px" viewBox="0 0 228.7 200.1" style="enable-background:new 0 0 228.7 200.1;" xml:space="preserve"
	>
<style type="text/css">
	.st0{fill:#231F20;}
	.st1{fill:none;stroke:#231F20;stroke-width:13.6322;stroke-miterlimit:10;}
	.st2{fill:#FFFFFF;}
	.st3{fill:none;stroke:#FFFFFF;stroke-width:13.6322;stroke-miterlimit:10;}
</style>
<g>
	<g>
		<g>
			<path class="st2" d="M91.1,60.4h25.7v9H110l-25.7,70.2H69.9L44.6,69.5h-7v-9h25.7v9h-6.9l20.3,61.1l21.8-61.1h-7.5V60.4z"/>
			<path class="st2" d="M176.9,81.3c-2.3-4-5.4-7.1-9.3-9.4c-3.9-2.3-8.2-3.4-12.9-3.4c-4,0-7.7,0.9-11.1,2.6
				c-3.3,1.7-6.2,4-8.6,6.9c-2.4,2.9-4.2,6.2-5.6,10c-1.3,3.8-2,7.8-2,12c0,5,0.7,9.3,2.2,13.2c1.5,3.8,3.4,7,5.7,9.5
				c2.4,2.5,5.2,4.6,8.4,6.3c3.2,1.7,6.9,2.5,10.9,2.5c5.5,0,10.3-1.3,14.4-4c4.1-2.7,7.6-7.1,10.5-13.2l9.2,4.3
				c-1.3,3.8-3.6,7.4-6.7,10.9c-3.2,3.5-7.1,6.3-11.7,8.5c-4.7,2.1-9.8,3.2-15.5,3.2c-5.4,0-10.4-1-14.9-3.1
				c-4.5-2-8.6-4.9-12.1-8.7c-3.5-3.8-6.2-8.2-8.1-13.4c-1.9-5.2-2.8-10.5-2.8-16.2c0-5.6,0.9-11,2.8-16c1.9-5,4.5-9.4,7.8-13.1
				c3.4-3.7,7.4-6.6,12-8.8c4.7-2.1,9.7-3.2,15.1-3.2c4.8,0,9,0.7,12.6,2.1c3.5,1.4,6.5,3,9,4.9c2.5,1.9,4.6,4,6.4,6.2h5.5v9.3
				H176.9z"/>
		</g>
		<rect x="33.8" y="46.1" class="st2" width="158.6" height="14.3"/>
		<rect x="36.3" y="139.6" class="st2" width="158.6" height="14.3"/>
	</g>
	<circle class="st3" cx="114.3" cy="100" r="92.5"/>
</g>
</svg>
