<?xml version="1.0" encoding="utf-8"?>
<!-- Generator: Adobe Illustrator 19.1.0, SVG Export Plug-In . SVG Version: 6.00 Build 0)  -->
<!DOCTYPE svg PUBLIC "-//W3C//DTD SVG 1.1//EN" "http://www.w3.org/Graphics/SVG/1.1/DTD/svg11.dtd">
<svg version="1.1" id="Layer_1" xmlns="http://www.w3.org/2000/svg" xmlns:xlink="http://www.w3.org/1999/xlink" x="0px" y="0px"
	 width="247px" height="247.1px" viewBox="-488 273.9 247 247.1" style="enable-background:new -488 273.9 247 247.1;"
	 xml:space="preserve">
<style type="text/css">
	.st0{fill:#991B1E;}
	.st1{clip-path:url(#XMLID_3_);fill:none;stroke:#000000;stroke-width:2.3097;stroke-miterlimit:10;}
	.st2{clip-path:url(#XMLID_3_);}
	.st3{fill:#FFFFFF;}
</style>
<g>
	<g>
		<circle class="st0" cx="-364.5" cy="397.5" r="122.5"/>
	</g>
	<g>
		<circle cx="-342.6" cy="377.3" r="33.9"/>
		<g>
			<defs>
				<circle id="XMLID_2_" cx="-342.6" cy="377.3" r="38.5"/>
			</defs>
			<use xlink:href="#XMLID_2_"  style="overflow:visible;fill:#FFFFFF;"/>
			<clipPath id="XMLID_3_">
				<use xlink:href="#XMLID_2_"  style="overflow:visible;"/>
			</clipPath>
			<polyline class="st1" points="-470.3,404.2 -461.6,429.8 -378.8,402.6 			"/>
			<path class="st1" d="M-387.6,380.1c0,0,1,22.7,16.7,31.2l-93.6,33.5c0,0-12.3-10.1-9.1-25.3"/>
			<path class="st2" d="M-414.3,365.7"/>
		</g>
		
			<rect x="-402.9" y="394.9" transform="matrix(-0.7071 -0.7071 0.7071 -0.7071 -980.8443 450.4714)" class="st3" width="11.6" height="66.9"/>
		<circle class="st0" cx="-342.6" cy="377.3" r="33.9"/>
		<path class="st3" d="M-321,391.8c0,0,9.4-20.4-4.3-34.5C-325.2,357.3-317.3,379.2-321,391.8z"/>
	</g>
</g>
</svg>
