<svg xmlns="http://www.w3.org/2000/svg" width="247" height="247.1" viewBox="0 0 247 247.1"><style type="text/css">.st0{fill:#991B1E;} .st1{fill:#FFFFFF;}</style><circle class="st0" cx="124.4" cy="122.6" r="122.6"/><path class="st1" d="M116.3 197.1v-29.1c-6-1-10.7-2.8-14.1-5.5-3.5-2.7-6.2-5.9-8.2-9.6h-10.7v-15.5h22.7v1l.2-.1c0 4.9 1.7 8.6 5.1 11.2 3.4 2.6 8.4 3.8 15 3.8 6 0 10.8-1.2 14.3-3.5s5.3-5.7 5.3-10c0-2.2-.6-4.1-1.8-5.6-1.2-1.5-2.6-2.8-4.4-3.7-1.8-1-3.7-1.8-5.9-2.4-2.2-.6-4.2-1.2-6.2-1.7l-15.9-4.2c-3.4-.9-6.6-2.1-9.5-3.6-2.9-1.5-5.4-3.3-7.5-5.5-2.1-2.2-3.7-4.7-4.8-7.7-1.1-2.9-1.7-6.4-1.7-10.3 0-3.5.6-6.7 1.9-9.7 1.3-3 3.1-5.6 5.5-7.9 2.4-2.3 5.4-4.2 8.9-5.7s7.5-2.6 12-3.3v-30.8h17.8v30.9c5.1.9 9.5 2.5 13.3 4.9 3.7 2.3 6.7 5.1 9 8.4h9.1v15.5h-18.9l-2.1.3v-.3h-.2v-2c-.6-3.9-2.6-7.1-5.9-9.5-3.3-2.4-7.7-3.6-13.2-3.6-6.6 0-11.6 1.1-15 3.2-3.4 2.1-5.1 5.1-5.1 8.8 0 2.5.6 4.5 1.7 6.1 1.1 1.5 2.5 2.7 4.2 3.7 1.7.9 3.5 1.7 5.6 2.2 2 .5 4 1 5.8 1.6l15.7 4.8c4 1.2 7.5 2.6 10.7 4.1 3.2 1.5 5.8 3.3 8 5.4 2.2 2 3.8 4.4 5 7.2 1.2 2.7 1.8 5.9 1.8 9.6 0 3.7-.7 7.2-2.1 10.4-1.4 3.2-3.4 6.1-6 8.6s-5.7 4.7-9.3 6.4c-3.6 1.7-7.7 3-12.1 3.7v29.1h-18z"/></svg>