<?xml version="1.0" encoding="utf-8"?>
<!-- Generator: Adobe Illustrator 19.1.0, SVG Export Plug-In . SVG Version: 6.00 Build 0)  -->
<!DOCTYPE svg PUBLIC "-//W3C//DTD SVG 1.1//EN" "http://www.w3.org/Graphics/SVG/1.1/DTD/svg11.dtd">
<svg version="1.1" id="Layer_1" xmlns="http://www.w3.org/2000/svg" xmlns:xlink="http://www.w3.org/1999/xlink" x="0px" y="0px"
	 width="247px" height="247.1px" viewBox="0 0 247 247.1" style="enable-background:new 0 0 247 247.1;" xml:space="preserve">
<style type="text/css">
	.st0{fill:#991B1E;}
	.st1{fill:#FFFFFF;}
</style>
<g>
	<circle class="st0" cx="124.4" cy="122.6" r="122.6"/>
	<g>
		<path class="st1" d="M116.3,197.1V168c-6-1-10.7-2.8-14.1-5.5c-3.5-2.7-6.2-5.9-8.2-9.6H83.3v-15.5H106v1l0.2-0.1
			c0,4.9,1.7,8.6,5.1,11.2c3.4,2.6,8.4,3.8,15,3.8c6,0,10.8-1.2,14.3-3.5c3.5-2.3,5.3-5.7,5.3-10c0-2.2-0.6-4.1-1.8-5.6
			c-1.2-1.5-2.6-2.8-4.4-3.7c-1.8-1-3.7-1.8-5.9-2.4c-2.2-0.6-4.2-1.2-6.2-1.7l-15.9-4.2c-3.4-0.9-6.6-2.1-9.5-3.6
			c-2.9-1.5-5.4-3.3-7.5-5.5c-2.1-2.2-3.7-4.7-4.8-7.7c-1.1-2.9-1.7-6.4-1.7-10.3c0-3.5,0.6-6.7,1.9-9.7c1.3-3,3.1-5.6,5.5-7.9
			c2.4-2.3,5.4-4.2,8.9-5.7c3.5-1.5,7.5-2.6,12-3.3V37.7h17.8v30.9c5.1,0.9,9.5,2.5,13.3,4.9c3.7,2.3,6.7,5.1,9,8.4h9.1v15.5h-18.9
			l-2.1,0.3v-0.3h-0.2v-2c-0.6-3.9-2.6-7.1-5.9-9.5c-3.3-2.4-7.7-3.6-13.2-3.6c-6.6,0-11.6,1.1-15,3.2c-3.4,2.1-5.1,5.1-5.1,8.8
			c0,2.5,0.6,4.5,1.7,6.1c1.1,1.5,2.5,2.7,4.2,3.7c1.7,0.9,3.5,1.7,5.6,2.2c2,0.5,4,1,5.8,1.6l15.7,4.8c4,1.2,7.5,2.6,10.7,4.1
			c3.2,1.5,5.8,3.3,8,5.4c2.2,2,3.8,4.4,5,7.2c1.2,2.7,1.8,5.9,1.8,9.6c0,3.7-0.7,7.2-2.1,10.4c-1.4,3.2-3.4,6.1-6,8.6
			c-2.6,2.5-5.7,4.7-9.3,6.4c-3.6,1.7-7.7,3-12.1,3.7v29.1H116.3z"/>
	</g>
</g>
</svg>
