<svg xmlns="http://www.w3.org/2000/svg" width="247" height="247.1" viewBox="0 0 247 247.1"><style type="text/css">.st0{fill:#991B1E;} .st1{fill:#FFFFFF;}</style><circle class="st0" cx="123.5" cy="123.5" r="123.5"/><path class="st1" d="M109.7 163c0-6.3.2-11.7.7-16.1.5-4.4 1.3-8.4 2.6-12.1 1.3-3.7 3-6.9 5.3-9.6 2.2-2.7 5.2-5.6 8.7-8.6 3.2-2.7 6.1-5.1 8.8-7.1 2.6-2 4.9-4 6.8-5.9 1.9-1.9 3.3-4 4.4-6.2 1-2.2 1.5-4.9 1.5-8.1 0-2.7-.5-5.4-1.6-7.9s-2.6-4.8-4.4-6.8c-1.9-2-4-3.6-6.5-4.8-2.5-1.2-5.2-1.8-8.1-1.8-4.9 0-9 .9-12.3 2.5-3.3 1.7-5.9 3.7-7.9 6.1-2 2.4-3.4 4.9-4.3 7.6-.9 2.7-1.3 4.9-1.3 6.8l-16-1.1c.3-5.1 1.5-9.9 3.7-14.5 2.2-4.5 5-8.5 8.7-12 3.6-3.4 7.9-6.2 12.9-8.2 5-2 10.5-3 16.5-3 6.1 0 11.4 1 16.1 3 4.7 2 8.7 4.7 11.9 8 3.2 3.3 5.6 7.2 7.3 11.6 1.6 4.4 2.5 9 2.5 13.8 0 6.2-1.6 11.9-4.7 17.1-3.2 5.2-7.9 10-14.1 14.4-2.9 2-6.1 4.6-9.8 7.7-3.7 3.2-6.3 7.1-7.8 11.7s-2.4 8.5-2.7 11.6c-.2 3.1-.4 7-.4 11.6h-16.5zm-3.9 19.5c0-1.6.3-3.1 1-4.5.6-1.4 1.5-2.7 2.5-3.7 1.1-1.1 2.3-1.9 3.8-2.5 1.5-.6 3-1 4.6-1 1.6 0 3.1.3 4.5 1 1.4.6 2.7 1.5 3.7 2.5 1.1 1.1 1.9 2.3 2.5 3.7.6 1.4 1 2.9 1 4.5s-.3 3.2-1 4.6c-.6 1.5-1.5 2.7-2.5 3.9-1.1 1.1-2.3 2-3.7 2.6-1.4.6-2.9 1-4.5 1s-3.2-.3-4.6-1c-1.5-.6-2.7-1.5-3.8-2.6-1.1-1.1-1.9-2.4-2.5-3.9-.7-1.4-1-2.9-1-4.6z"/></svg>