<?xml version="1.0" encoding="utf-8"?>
<!-- Generator: Adobe Illustrator 19.1.0, SVG Export Plug-In . SVG Version: 6.00 Build 0)  -->
<!DOCTYPE svg PUBLIC "-//W3C//DTD SVG 1.1//EN" "http://www.w3.org/Graphics/SVG/1.1/DTD/svg11.dtd">
<svg version="1.1" id="Layer_1" xmlns="http://www.w3.org/2000/svg" xmlns:xlink="http://www.w3.org/1999/xlink" x="0px" y="0px"
	 width="247px" height="247.1px" viewBox="0 0 247 247.1" style="enable-background:new 0 0 247 247.1;" xml:space="preserve">
<style type="text/css">
	.st0{fill:#991B1E;}
	.st1{fill:#FFFFFF;}
</style>
<g>
	<circle class="st0" cx="123.5" cy="123.5" r="123.5"/>
	<g>
		<path class="st1" d="M109.7,163c0-6.3,0.2-11.7,0.7-16.1c0.5-4.4,1.3-8.4,2.6-12.1c1.3-3.7,3-6.9,5.3-9.6c2.2-2.7,5.2-5.6,8.7-8.6
			c3.2-2.7,6.1-5.1,8.8-7.1c2.6-2,4.9-4,6.8-5.9c1.9-1.9,3.3-4,4.4-6.2c1-2.2,1.5-4.9,1.5-8.1c0-2.7-0.5-5.4-1.6-7.9
			s-2.6-4.8-4.4-6.8c-1.9-2-4-3.6-6.5-4.8c-2.5-1.2-5.2-1.8-8.1-1.8c-4.9,0-9,0.9-12.3,2.5c-3.3,1.7-5.9,3.7-7.9,6.1
			c-2,2.4-3.4,4.9-4.3,7.6c-0.9,2.7-1.3,4.9-1.3,6.8l-16-1.1c0.3-5.1,1.5-9.9,3.7-14.5c2.2-4.5,5-8.5,8.7-12
			c3.6-3.4,7.9-6.2,12.9-8.2c5-2,10.5-3,16.5-3c6.1,0,11.4,1,16.1,3c4.7,2,8.7,4.7,11.9,8c3.2,3.3,5.6,7.2,7.3,11.6
			c1.6,4.4,2.5,9,2.5,13.8c0,6.2-1.6,11.9-4.7,17.1c-3.2,5.2-7.9,10-14.1,14.4c-2.9,2-6.1,4.6-9.8,7.7c-3.7,3.2-6.3,7.1-7.8,11.7
			c-1.5,4.6-2.4,8.5-2.7,11.6c-0.2,3.1-0.4,7-0.4,11.6H109.7z M105.8,182.5c0-1.6,0.3-3.1,1-4.5c0.6-1.4,1.5-2.7,2.5-3.7
			c1.1-1.1,2.3-1.9,3.8-2.5c1.5-0.6,3-1,4.6-1c1.6,0,3.1,0.3,4.5,1c1.4,0.6,2.7,1.5,3.7,2.5c1.1,1.1,1.9,2.3,2.5,3.7
			c0.6,1.4,1,2.9,1,4.5c0,1.6-0.3,3.2-1,4.6c-0.6,1.5-1.5,2.7-2.5,3.9c-1.1,1.1-2.3,2-3.7,2.6c-1.4,0.6-2.9,1-4.5,1
			c-1.6,0-3.2-0.3-4.6-1c-1.5-0.6-2.7-1.5-3.8-2.6c-1.1-1.1-1.9-2.4-2.5-3.9C106.1,185.7,105.8,184.2,105.8,182.5z"/>
	</g>
</g>
</svg>
